<svg width="22" height="19" viewBox="0 0 22 19" fill="none" xmlns="http://www.w3.org/2000/svg">
<path d="M9.20574 1.9041L1.25169 15.1827C1.0877 15.4667 1.00093 15.7887 1.00001 16.1167C0.999089 16.4446 1.08406 16.7671 1.24646 17.052C1.40886 17.3369 1.64303 17.5744 1.92568 17.7407C2.20833 17.907 2.5296 17.9964 2.85753 18H18.7656C19.0935 17.9964 19.4148 17.907 19.6975 17.7407C19.9801 17.5744 20.2143 17.3369 20.3767 17.052C20.5391 16.7671 20.624 16.4446 20.6231 16.1167C20.6222 15.7887 20.5354 15.4667 20.3714 15.1827L12.4174 1.9041C12.25 1.62811 12.0143 1.39992 11.733 1.24156C11.4517 1.0832 11.1344 1 10.8116 1C10.4888 1 10.1714 1.0832 9.89014 1.24156C9.60886 1.39992 9.37315 1.62811 9.20574 1.9041Z" stroke="#94A3B8" stroke-width="2" stroke-linecap="round" stroke-linejoin="round"/>
<path d="M10.8115 6.73096V10.4873" stroke="#94A3B8" stroke-width="2" stroke-linecap="round" stroke-linejoin="round"/>
<path d="M10.8115 14.2437H10.8215" stroke="#94A3B8" stroke-width="2" stroke-linecap="round" stroke-linejoin="round"/>
</svg>
