<svg width="177" height="37" viewBox="0 0 177 37" fill="none" xmlns="http://www.w3.org/2000/svg">
<path d="M31.6942 33.5124C30.871 34.1439 25.016 37.0083 18.3883 37.0083C7.20924 37.0083 0 28.8973 0 18.5083C0 8.11932 8.03243 0.00830078 19.307 0.00830078C24.4372 0.00830078 28.9353 1.31926 31.5004 2.33983L32.5652 10.8371L31.8881 11.0795C27.2411 4.2823 24.145 1.51379 18.6777 1.51379C9.77433 1.51379 6.24276 8.74802 6.24276 18.5083C6.24276 28.2686 9.92043 35.5028 18.3883 35.5028C25.1621 35.5028 28.7442 30.696 32.082 23.8987L32.7113 24.0933L31.6942 33.5124Z" fill="black"/>
<path d="M34.9364 36.2783V36.1824C37.2599 33.755 38.1308 31.5701 39.5328 27.8318L49.8381 0.349609H51.3862L61.8376 28.3646C63.3856 32.5879 64.546 34.4345 66.2401 36.1824V36.2783H56.5613V36.1824C57.3845 34.7728 57.3367 31.7139 56.0303 28.1222L54.1423 23.1208H42.8199L41.9012 25.5961C39.7716 31.3248 40.9825 34.5783 41.9967 36.1824V36.2783H34.9308H34.9364ZM53.6141 21.6153L48.5345 7.97007L43.4043 21.6153H53.6141Z" fill="black"/>
<path d="M69.2435 36.182C70.8393 33.1711 71.1793 31.5218 71.1793 27.4903V9.52592C71.1793 5.4972 70.8393 3.84511 69.2435 0.834136V0.738281H78.6779V0.834136C77.0821 3.84511 76.7421 5.49438 76.7421 9.52592V27.4903C76.7421 31.519 77.0821 33.1711 78.6779 36.182V36.2779H69.2435V36.182Z" fill="black"/>
<path d="M104.66 9.91253L103.983 10.155C100.839 3.55227 97.4989 1.51112 94.1135 1.51112C90.728 1.51112 88.8877 3.4536 88.8877 6.56042C88.8877 11.0261 93.0009 12.9686 97.3079 15.1056C102.05 17.4371 107.034 20.0083 107.034 26.6618C107.034 33.9439 101.227 37.0028 94.3579 37.0028C91.1157 37.0028 87.5841 36.3234 84.3897 35.1083L83.4232 25.8329L84.1003 25.5904C87.6796 32.4864 91.4079 35.4945 95.9059 35.4945C100.404 35.4945 102.343 32.5315 102.343 29.1822C102.343 24.5699 98.6649 22.3849 94.6501 20.3945C89.7615 17.9192 84.6341 15.5398 84.6341 9.27537C84.6341 2.57399 90.0059 0 95.8104 0C98.6649 0 101.424 0.583587 103.697 1.40681L104.663 9.90407L104.66 9.91253Z" fill="black"/>
<path d="M120.871 36.2779H111.437V36.182C112.985 33.1711 113.373 31.4711 113.373 27.4903V9.52592C113.373 5.4972 112.985 3.84511 111.437 0.834136V0.738281H123.776C132.534 0.738281 136.018 4.18624 136.018 9.38214C136.018 13.4109 133.84 16.8109 129.098 18.4122L134.759 29.5314C136.841 33.6109 137.855 34.6794 140.372 35.9396V36.2807H131.857L123.243 19.3849H118.936V27.4931C118.936 31.5218 119.276 33.1739 120.871 36.1849V36.2807V36.2779ZM118.936 2.28888V17.8738H122.709C128.758 17.8738 130.258 13.7943 130.258 9.42443C130.258 5.05457 128.564 2.23813 122.709 2.23813C122.079 2.23813 120.821 2.23813 118.936 2.28606V2.28888Z" fill="black"/>
<path d="M140.518 18.5562C140.518 8.2631 149.616 0.00830078 158.713 0.00830078C167.81 0.00830078 177.003 8.2631 177.003 18.5562C177.003 28.8494 167.81 37.0083 158.713 37.0083C149.616 37.0083 140.518 28.8522 140.518 18.5562ZM170.76 18.5562C170.76 8.94254 166.599 1.51379 158.713 1.51379C150.826 1.51379 146.761 8.94254 146.761 18.5562C146.761 28.1699 150.874 35.5028 158.713 35.5028C166.551 35.5028 170.76 28.2207 170.76 18.5562Z" fill="black"/>
</svg>
