<svg width="22" height="22" viewBox="0 0 22 22" fill="none" xmlns="http://www.w3.org/2000/svg">
<path d="M17.4167 20.7499C19.2577 20.7499 20.75 19.2575 20.75 17.4166C20.75 15.5756 19.2577 14.0833 17.4167 14.0833C15.5758 14.0833 14.0834 15.5756 14.0834 17.4166C14.0834 19.2575 15.5758 20.7499 17.4167 20.7499Z" stroke="white" stroke-width="1.5" stroke-linecap="round" stroke-linejoin="round"/>
<path d="M4.08333 7.41667C5.92428 7.41667 7.41667 5.92428 7.41667 4.08333C7.41667 2.24238 5.92428 0.75 4.08333 0.75C2.24238 0.75 0.75 2.24238 0.75 4.08333C0.75 5.92428 2.24238 7.41667 4.08333 7.41667Z" stroke="white" stroke-width="1.5" stroke-linecap="round" stroke-linejoin="round"/>
<path d="M4.08337 20.7501V7.41675C4.08337 10.0689 5.13694 12.6125 7.01231 14.4878C8.88767 16.3632 11.4312 17.4167 14.0834 17.4167" stroke="white" stroke-width="1.5" stroke-linecap="round" stroke-linejoin="round"/>
</svg>
