<svg width="14" height="26" viewBox="0 0 14 26" fill="none" xmlns="http://www.w3.org/2000/svg">
<path d="M13.5868 11.395L13.2608 14.0224C13.2056 14.4613 12.8352 14.7914 12.3958 14.7914H8.15486V25.7762C7.70762 25.8167 7.25446 25.8375 6.79638 25.8375C5.77185 25.8375 4.77195 25.7347 3.80554 25.539V14.7914H0.543789C0.244311 14.7914 0 14.5453 0 14.2438V10.9562C0 10.6547 0.244311 10.4085 0.543789 10.4085H3.80554V5.47808C3.80554 2.45238 6.23978 0 9.24343 0H13.049C13.3484 0 13.5928 0.246127 13.5928 0.547609V3.83525C13.5928 4.13673 13.3484 4.38286 13.049 4.38286H10.33C9.12915 4.38286 8.15585 5.36342 8.15585 6.57429V10.4095H12.7229C13.247 10.4095 13.6519 10.8721 13.5878 11.396L13.5868 11.395Z" fill="white"/>
</svg>
