<svg width="22" height="22" viewBox="0 0 22 22" fill="none" xmlns="http://www.w3.org/2000/svg">
<path d="M17.4167 0.75C16.5326 0.75 15.6848 1.10119 15.0596 1.72631C14.4345 2.35143 14.0833 3.19928 14.0833 4.08333V17.4167C14.0833 18.3007 14.4345 19.1486 15.0596 19.7737C15.6848 20.3988 16.5326 20.75 17.4167 20.75C18.3007 20.75 19.1486 20.3988 19.7737 19.7737C20.3988 19.1486 20.75 18.3007 20.75 17.4167C20.75 16.5326 20.3988 15.6848 19.7737 15.0596C19.1486 14.4345 18.3007 14.0833 17.4167 14.0833H4.08333C3.19928 14.0833 2.35143 14.4345 1.72631 15.0596C1.10119 15.6848 0.75 16.5326 0.75 17.4167C0.75 18.3007 1.10119 19.1486 1.72631 19.7737C2.35143 20.3988 3.19928 20.75 4.08333 20.75C4.96739 20.75 5.81524 20.3988 6.44036 19.7737C7.06548 19.1486 7.41667 18.3007 7.41667 17.4167V4.08333C7.41667 3.19928 7.06548 2.35143 6.44036 1.72631C5.81524 1.10119 4.96739 0.75 4.08333 0.75C3.19928 0.75 2.35143 1.10119 1.72631 1.72631C1.10119 2.35143 0.75 3.19928 0.75 4.08333C0.75 4.96739 1.10119 5.81524 1.72631 6.44036C2.35143 7.06548 3.19928 7.41667 4.08333 7.41667H17.4167C18.3007 7.41667 19.1486 7.06548 19.7737 6.44036C20.3988 5.81524 20.75 4.96739 20.75 4.08333C20.75 3.19928 20.3988 2.35143 19.7737 1.72631C19.1486 1.10119 18.3007 0.75 17.4167 0.75Z" stroke="white" stroke-width="1.5" stroke-linecap="round" stroke-linejoin="round"/>
</svg>
