<svg width="21" height="21" viewBox="0 0 21 21" fill="none" xmlns="http://www.w3.org/2000/svg">
<path d="M15.5768 0H4.95617C2.21949 0 0 2.22701 0 4.97297V15.6296C0 18.3756 2.21949 20.6026 4.95617 20.6026H15.5768C18.3135 20.6026 20.533 18.3756 20.533 15.6296V4.97297C20.533 2.22701 18.3135 0 15.5768 0ZM18.7627 15.2738C18.7627 17.2349 17.1766 18.8263 15.2222 18.8263H5.30983C3.35534 18.8263 1.76929 17.2349 1.76929 15.2738V5.32783C1.76929 3.36671 3.35534 1.77528 5.30983 1.77528H15.2222C17.1766 1.77528 18.7627 3.36671 18.7627 5.32783V15.2738Z" fill="white"/>
<path d="M10.2756 4.97314C7.3449 4.97314 4.96582 7.36029 4.96582 10.301C4.96582 13.2417 7.3449 15.6288 10.2756 15.6288C13.2064 15.6288 15.5855 13.2417 15.5855 10.301C15.5855 7.36029 13.2064 4.97314 10.2756 4.97314ZM10.2756 13.8535C8.3251 13.8535 6.7351 12.2581 6.7351 10.301C6.7351 8.34381 8.3251 6.74843 10.2756 6.74843C12.2262 6.74843 13.8162 8.34381 13.8162 10.301C13.8162 12.2581 12.2262 13.8535 10.2756 13.8535Z" fill="white"/>
<path d="M15.9409 5.68387C16.5274 5.68387 17.0028 5.2068 17.0028 4.6183C17.0028 4.0298 16.5274 3.55273 15.9409 3.55273C15.3544 3.55273 14.8789 4.0298 14.8789 4.6183C14.8789 5.2068 15.3544 5.68387 15.9409 5.68387Z" fill="white"/>
</svg>
