<svg width="19" height="20" viewBox="0 0 19 20" fill="none" xmlns="http://www.w3.org/2000/svg">
<path d="M2.52094 5.05897C3.91322 5.05897 5.04188 3.92648 5.04188 2.52948C5.04188 1.13249 3.91322 0 2.52094 0C1.12867 0 0 1.13249 0 2.52948C0 3.92648 1.12867 5.05897 2.52094 5.05897Z" fill="white"/>
<path d="M4.43369 6.74414H0.60845C0.504533 6.74414 0.420288 6.82867 0.420288 6.93293V19.2018C0.420288 19.306 0.504533 19.3906 0.60845 19.3906H4.43369C4.5376 19.3906 4.62185 19.306 4.62185 19.2018V6.93293C4.62185 6.82867 4.5376 6.74414 4.43369 6.74414Z" fill="white"/>
<path d="M18.9063 11.3822V18.5486C18.9063 19.0122 18.528 19.3917 18.066 19.3917H15.5451C15.083 19.3917 14.7047 19.0122 14.7047 18.5486V12.6465C14.7047 11.483 13.7639 10.5391 12.6045 10.5391C11.445 10.5391 10.5042 11.483 10.5042 12.6465V18.5486C10.5042 19.0122 10.1259 19.3917 9.66386 19.3917H7.14291C6.68089 19.3917 6.30261 19.0122 6.30261 18.5486V7.58749C6.30261 7.1239 6.68089 6.74433 7.14291 6.74433H9.66386C10.1259 6.74433 10.5042 7.1239 10.5042 7.58749V8.12719C11.3445 7.03494 12.7355 6.32324 14.2851 6.32324C16.6041 6.32324 18.9063 8.00956 18.9063 11.3822Z" fill="white"/>
</svg>
