<svg width="10" height="11" viewBox="0 0 10 11" fill="none" xmlns="http://www.w3.org/2000/svg">
<path d="M8.25 4.75H1.25C0.697715 4.75 0.25 5.19772 0.25 5.75V9.25C0.25 9.80228 0.697715 10.25 1.25 10.25H8.25C8.80229 10.25 9.25 9.80228 9.25 9.25V5.75C9.25 5.19772 8.80229 4.75 8.25 4.75Z" stroke="white" stroke-width="0.5" stroke-linecap="round" stroke-linejoin="round"/>
<path d="M2.25 4.75V2.75C2.25 2.08696 2.51339 1.45107 2.98223 0.982233C3.45107 0.513392 4.08696 0.25 4.75 0.25C5.41304 0.25 6.04893 0.513392 6.51777 0.982233C6.98661 1.45107 7.25 2.08696 7.25 2.75V4.75" stroke="white" stroke-width="0.5" stroke-linecap="round" stroke-linejoin="round"/>
</svg>
