<svg width="310" height="43" viewBox="0 0 310 43" fill="none" xmlns="http://www.w3.org/2000/svg">
<path d="M12.6881 14.2531C12.3616 14.5064 10.0143 15.6491 7.36295 15.6491C2.88777 15.6491 0 12.4123 0 8.26928C0 4.12622 3.21427 0.889454 7.72885 0.889454C9.7835 0.889454 11.5848 1.41297 12.6093 1.81826L13.0371 5.20702L12.7669 5.30271C10.9093 2.58946 9.67091 1.48614 7.48117 1.48614C3.91791 1.48614 2.50498 4.3739 2.50498 8.26365C2.50498 12.1534 3.97983 15.0412 7.36858 15.0412C10.0818 15.0412 11.5116 13.1216 12.8514 10.414L13.1047 10.4928L12.6994 14.2531H12.6881Z" fill="white"/>
<path d="M15.925 15.3226C16.2909 14.2193 16.3922 13.2511 16.3922 11.4667V9.12492C16.3922 7.78518 15.9644 7.05339 15.4634 6.50736V6.46796L18.3117 5.40405V7.8077H18.3905C19.2067 6.89578 20.2876 5.48286 21.5879 5.50537L21.5485 7.96531L21.3571 7.98783C20.9687 7.75704 20.1356 7.50372 19.7134 7.50372C19.4038 7.50372 18.8409 7.83021 18.3961 8.43253V11.4554C18.3961 13.2173 18.4356 14.2249 18.8409 15.3282V15.3677H15.9362V15.3282L15.925 15.3226Z" fill="white"/>
<path d="M23.9804 15.3226C24.2506 14.2193 24.4476 13.2286 24.4476 11.4666V9.1981C24.4476 7.92028 24.0198 7.14346 23.5188 6.61994V6.46233L26.446 5.39842V11.4441C26.446 13.1667 26.4854 14.2137 26.8907 15.317V15.3564H23.986V15.317L23.9804 15.3226ZM24.138 2.42059C24.138 1.72258 24.6615 1.18218 25.337 1.18218C26.0125 1.18218 26.5585 1.72258 26.5585 2.42059C26.5585 3.0792 26.0181 3.6196 25.337 3.6196C24.6559 3.6196 24.138 3.0792 24.138 2.42059Z" fill="white"/>
<path d="M32.3677 15.6491C31.1686 15.6491 30.0991 15.1087 30.0991 13.2286V6.41165H29.0127V6.15834L31.9398 3.5633H32.1312V5.80933H34.7263V6.41165H32.1312V13.1723C32.1312 14.0617 32.5759 14.5289 33.4878 14.5289C34.1859 14.5289 34.6475 14.2756 34.7657 14.2024L34.9233 14.3938C34.3604 15.1706 33.471 15.6547 32.3677 15.6547V15.6491Z" fill="white"/>
<path d="M37.3102 15.3226C37.5804 14.2193 37.7774 13.2286 37.7774 11.4666V9.1981C37.7774 7.92028 37.3496 7.14346 36.8486 6.61994V6.46233L39.7758 5.39842V11.4441C39.7758 13.1667 39.8152 14.2137 40.2205 15.317V15.3564H37.3159V15.317L37.3102 15.3226ZM37.4622 2.42059C37.4622 1.72258 37.9857 1.18218 38.6612 1.18218C39.3367 1.18218 39.8828 1.72258 39.8828 2.42059C39.8828 3.0792 39.3423 3.6196 38.6612 3.6196C37.9801 3.6196 37.4622 3.0792 37.4622 2.42059Z" fill="white"/>
<path d="M50.7525 13.1497C50.1727 14.5626 48.8554 15.6491 46.8571 15.6491C44.2226 15.6491 42.4607 13.7126 42.4607 10.7461C42.4607 7.77951 44.9038 5.4997 47.5382 5.4997C48.9342 5.4997 49.728 5.79242 50.1895 6.02321L50.4822 8.34806L50.2515 8.40435C49.7111 7.49242 48.4501 6.10202 47.2286 6.10202C45.5624 6.10202 44.4759 7.57686 44.4759 9.93548C44.4759 12.5305 45.8495 13.9434 47.921 13.9434C48.8892 13.9434 49.8574 13.6732 50.5386 12.9583L50.7525 13.1497Z" fill="white"/>
<path d="M52.7227 13.7913C52.7227 11.6241 55.7061 10.594 57.8959 10.2281V8.81514C57.8959 7.44162 57.4117 6.7999 56.0157 6.7999C55.1657 6.7999 54.1356 7.0307 53.2856 7.63302L53.0942 7.44162C53.9273 6.31579 55.3796 5.5052 57.0853 5.5052C59.2525 5.5052 59.9111 6.7999 59.9111 8.29163V13.4648C59.9111 14.0052 60.1025 14.3767 60.6879 14.3767C61.0538 14.3767 61.3634 14.2416 61.7124 13.932L61.8869 14.0897C61.5604 14.7483 60.9018 15.5983 59.6578 15.5983C58.5939 15.5983 58.0478 14.996 57.9352 14.2248C57.2991 14.9791 56.2296 15.6602 54.9349 15.6602C53.6402 15.6602 52.7283 14.9791 52.7283 13.8026L52.7227 13.7913ZM56.0945 14.4499C56.8488 14.4499 57.5468 14.1234 57.8959 13.735V10.7347C56.2521 11.1006 54.6028 11.8605 54.6028 13.1946C54.6028 13.9714 55.1657 14.4556 56.0945 14.4556V14.4499Z" fill="white"/>
<path d="M63.6096 15.3226C63.8798 14.7596 64.0543 14.0841 64.0543 12.5924V3.68147C64.0543 2.36425 63.6264 1.60994 63.1423 1.10331V1.04702L66.0695 0V12.5699C66.0695 14.0616 66.2609 14.7765 66.5367 15.3226V15.362H63.6096V15.3226Z" fill="white"/>
<path d="M73.3142 15.3562V15.3168C74.243 14.3486 74.592 13.4761 75.155 11.9844L79.2811 1.02441H79.9003L84.0828 12.1983C84.702 13.8814 85.1692 14.6188 85.8447 15.3168V15.3562H81.9719V15.3168C82.2983 14.7539 82.2815 13.5324 81.7579 12.1026L81.0037 10.1099H76.4722L76.1063 11.095C75.2563 13.3804 75.7404 14.6807 76.1457 15.3168V15.3562H73.3198H73.3142ZM80.7897 9.50755L78.7576 4.06415L76.703 9.50755H80.7897Z" fill="white"/>
<path d="M87.8598 15.3226C88.2257 14.2193 88.327 13.2511 88.327 11.4667V9.12492C88.327 7.78518 87.8992 7.05339 87.3982 6.50736V6.46796L90.2465 5.40405V7.34048L90.3254 7.35736C91.1979 6.27094 92.1661 5.49974 93.579 5.49974C95.4028 5.49974 96.4048 6.64246 96.4048 8.40439V11.4441C96.4048 13.2624 96.4443 14.2137 96.8721 15.317V15.3564H93.9449V15.317C94.3108 14.2137 94.3896 13.1498 94.3896 11.461V8.88287C94.3896 7.77955 93.8886 6.85074 92.5489 6.85074C91.6989 6.85074 90.9052 7.21664 90.3197 7.95406V11.4385C90.3197 13.2004 90.3591 14.208 90.7644 15.3114V15.3508H87.8598V15.3114V15.3226Z" fill="white"/>
<path d="M99.2871 13.7913C99.2871 11.6241 102.271 10.594 104.46 10.2281V8.81514C104.46 7.44162 103.976 6.7999 102.58 6.7999C101.73 6.7999 100.7 7.0307 99.85 7.63302L99.6587 7.44162C100.492 6.31579 101.944 5.5052 103.65 5.5052C105.817 5.5052 106.476 6.7999 106.476 8.29163V13.4648C106.476 14.0052 106.667 14.3767 107.252 14.3767C107.618 14.3767 107.928 14.2416 108.277 13.932L108.451 14.0897C108.125 14.7483 107.466 15.5983 106.222 15.5983C105.158 15.5983 104.612 14.996 104.5 14.2248C103.864 14.9791 102.794 15.6602 101.499 15.6602C100.205 15.6602 99.2927 14.9791 99.2927 13.8026L99.2871 13.7913ZM102.659 14.4499C103.413 14.4499 104.111 14.1234 104.46 13.735V10.7347C102.817 11.1006 101.167 11.8605 101.167 13.1946C101.167 13.9714 101.73 14.4556 102.659 14.4556V14.4499Z" fill="white"/>
<path d="M110.174 15.3226C110.444 14.7596 110.619 14.0841 110.619 12.5924V3.68147C110.619 2.36425 110.191 1.60994 109.707 1.10331V1.04702L112.634 0V12.5699C112.634 14.0616 112.825 14.7765 113.101 15.3226V15.362H110.174V15.3226Z" fill="white"/>
<path d="M115.595 17.6812C116.293 17.6981 118.094 17.5461 118.792 15.7842L118.95 15.4183L116.045 8.17357C115.522 6.87324 115.229 6.33284 114.784 5.84873V5.80933H118.212V5.84873C117.998 6.23714 117.785 7.07026 118.235 8.19046L120.036 12.6825L121.702 8.47755C122.187 7.27854 121.781 6.28781 121.488 5.8431V5.8037H123.926V5.8431C123.228 6.58052 122.901 7.14344 122.434 8.30304L119.181 16.3415C118.134 18.9196 117.07 19.4994 115.634 19.6345L115.595 17.6756V17.6812Z" fill="white"/>
<path d="M131.672 8.1903L131.441 8.26911C130.489 6.58599 129.369 6.10188 128.418 6.10188C127.393 6.10188 126.847 6.6648 126.847 7.41911C126.847 8.56183 128.125 8.96713 129.442 9.51315C130.838 10.093 132.251 10.8304 132.251 12.7274C132.251 14.7426 130.568 15.6546 128.474 15.6546C127.427 15.6546 126.363 15.4238 125.513 15.1311L125.299 12.4572L125.53 12.3784C126.498 14.2585 127.506 15.0691 128.767 15.0691C130.028 15.0691 130.529 14.2754 130.529 13.4817C130.529 12.4572 129.696 11.99 128.536 11.489C127.14 10.8867 125.474 10.2675 125.474 8.23534C125.474 6.20321 127.219 5.5052 128.981 5.5052C129.949 5.5052 130.94 5.69659 131.458 5.91049L131.672 8.19593V8.1903Z" fill="white"/>
<path d="M134.655 15.3226C134.925 14.2193 135.122 13.2286 135.122 11.4666V9.1981C135.122 7.92028 134.695 7.14346 134.194 6.61994V6.46233L137.121 5.39842V11.4441C137.121 13.1667 137.16 14.2137 137.565 15.317V15.3564H134.661V15.317L134.655 15.3226ZM134.813 2.42059C134.813 1.72258 135.336 1.18218 136.012 1.18218C136.687 1.18218 137.233 1.72258 137.233 2.42059C137.233 3.0792 136.693 3.6196 136.012 3.6196C135.331 3.6196 134.813 3.0792 134.813 2.42059Z" fill="white"/>
<path d="M146.51 8.1903L146.279 8.26911C145.328 6.58599 144.208 6.10188 143.256 6.10188C142.232 6.10188 141.686 6.6648 141.686 7.41911C141.686 8.56183 142.964 8.96713 144.281 9.51315C145.677 10.093 147.09 10.8304 147.09 12.7274C147.09 14.7426 145.407 15.6546 143.313 15.6546C142.266 15.6546 141.202 15.4238 140.352 15.1311L140.138 12.4572L140.368 12.3784C141.337 14.2585 142.344 15.0691 143.605 15.0691C144.866 15.0691 145.367 14.2754 145.367 13.4817C145.367 12.4572 144.534 11.99 143.374 11.489C141.978 10.8867 140.312 10.2675 140.312 8.23534C140.312 6.20321 142.057 5.5052 143.819 5.5052C144.787 5.5052 145.778 5.69659 146.296 5.91049L146.51 8.19593V8.1903Z" fill="white"/>
<path d="M162.857 15.3565C162.491 14.9906 162.142 14.619 161.636 14.0786C160.51 15.1257 159.255 15.5704 157.819 15.5704C155.28 15.5704 153.811 13.8647 153.811 11.9114C153.811 10.127 154.875 8.91107 156.367 8.09485V8.03856C155.691 7.18855 155.281 6.23722 155.281 5.30841C155.281 3.72099 156.423 2.09417 158.59 2.09417C160.217 2.09417 161.478 3.18059 161.478 4.86371C161.478 6.23722 160.684 7.32365 158.613 8.34816V8.40445C159.716 9.68227 160.955 11.1177 161.788 12.0465C162.39 11.1346 162.795 9.87929 163.049 8.22995H164.597C164.248 10.2846 163.685 11.9114 162.717 13.0541C163.415 13.7916 164.09 14.529 164.867 15.3565H162.852H162.857ZM160.803 13.1104C160.026 12.2604 158.574 10.6674 157.121 9.00677C156.423 9.45147 155.438 10.2846 155.438 11.6581C155.438 13.1498 156.541 14.2925 158.112 14.2925C159.238 14.2925 160.184 13.7916 160.803 13.1104ZM156.834 5.1508C156.834 6.07961 157.262 6.79451 157.819 7.49253C159.136 6.73822 159.986 6.0402 159.986 4.93689C159.986 4.14318 159.542 3.25377 158.478 3.25377C157.414 3.25377 156.834 4.14318 156.834 5.1508Z" fill="white"/>
<path d="M171.594 15.3226C172.235 14.1236 172.371 13.465 172.371 11.8551V4.68914C172.371 3.0792 172.235 2.42059 171.594 1.22158V1.18218H175.371V1.22158C174.729 2.42059 174.594 3.0792 174.594 4.68914V11.8551C174.594 13.465 174.729 14.1236 175.371 15.3226V15.362H171.594V15.3226Z" fill="white"/>
<path d="M178.118 15.3226C178.483 14.2193 178.585 13.2511 178.585 11.4667V9.12492C178.585 7.78518 178.157 7.05339 177.656 6.50736V6.46796L180.504 5.40405V7.34048L180.583 7.35736C181.456 6.27094 182.424 5.49974 183.837 5.49974C185.661 5.49974 186.663 6.64246 186.663 8.40439V11.4441C186.663 13.2624 186.702 14.2137 187.13 15.317V15.3564H184.203V15.317C184.569 14.2137 184.647 13.1498 184.647 11.461V8.88287C184.647 7.77955 184.146 6.85074 182.807 6.85074C181.957 6.85074 181.163 7.21664 180.578 7.95406V11.4385C180.578 13.2004 180.617 14.208 181.022 15.3114V15.3508H178.118V15.3114V15.3226Z" fill="white"/>
<path d="M192.703 15.6491C191.504 15.6491 190.434 15.1087 190.434 13.2286V6.41165H189.348V6.15834L192.275 3.5633H192.466V5.80933H195.061V6.41165H192.466V13.1723C192.466 14.0617 192.911 14.5289 193.823 14.5289C194.521 14.5289 194.983 14.2756 195.101 14.2024L195.259 14.3938C194.696 15.1706 193.806 15.6547 192.703 15.6547V15.6491Z" fill="white"/>
<path d="M205.025 12.7838L205.256 12.9583C204.654 14.4332 203.336 15.6491 201.304 15.6491C198.653 15.6491 196.852 13.6563 196.852 10.7686C196.852 7.53183 199.154 5.4997 201.445 5.4997C203.736 5.4997 205.397 7.65004 205.2 9.62587H198.884V9.91859C198.884 12.5924 200.297 13.9491 202.351 13.9491C203.415 13.9491 204.327 13.5832 205.025 12.7895V12.7838ZM198.94 9.08547L203.162 8.98978V8.75898C203.162 6.94077 202.56 6.10765 201.377 6.10765C200.021 6.10765 199.131 7.34607 198.94 9.0911V9.08547Z" fill="white"/>
<path d="M207.344 15.3226C207.615 14.7596 207.789 14.0841 207.789 12.5924V3.68147C207.789 2.36425 207.361 1.60994 206.877 1.10331V1.04702L209.804 0V12.5699C209.804 14.0616 209.996 14.7765 210.272 15.3226V15.362H207.344V15.3226Z" fill="white"/>
<path d="M213.024 15.3226C213.294 14.7596 213.469 14.0841 213.469 12.5924V3.68147C213.469 2.36425 213.041 1.60994 212.557 1.10331V1.04702L215.484 0V12.5699C215.484 14.0616 215.675 14.7765 215.951 15.3226V15.362H213.024V15.3226Z" fill="white"/>
<path d="M218.676 15.3226C218.946 14.2193 219.143 13.2286 219.143 11.4666V9.1981C219.143 7.92028 218.715 7.14346 218.214 6.61994V6.46233L221.141 5.39842V11.4441C221.141 13.1667 221.181 14.2137 221.586 15.317V15.3564H218.681V15.317L218.676 15.3226ZM218.833 2.42059C218.833 1.72258 219.357 1.18218 220.032 1.18218C220.708 1.18218 221.254 1.72258 221.254 2.42059C221.254 3.0792 220.714 3.6196 220.032 3.6196C219.351 3.6196 218.833 3.0792 218.833 2.42059Z" fill="white"/>
<path d="M226.793 11.9901C226.039 12.204 225.808 12.6093 225.808 12.9752C225.808 13.6338 226.562 13.8083 227.784 13.8477L229.799 13.904C231.814 13.9603 233.323 14.754 233.266 16.4033C233.21 18.1878 231.386 19.6401 227.981 19.6401C225.386 19.6401 223.528 18.7901 223.528 17.259C223.528 16.2513 224.339 15.6321 225.234 15.3788C224.654 15.0861 224.282 14.6245 224.282 13.904C224.282 12.7219 225.234 12.0464 226.236 11.7536C225.093 11.1738 224.339 10.1099 224.339 8.86589C224.339 6.96886 226.005 5.49402 228.076 5.49402C229.101 5.49402 230.03 5.88243 230.711 6.44535L233.345 5.03243L233.385 5.04932V6.94634H233.306L231.156 6.89005C231.623 7.43045 231.893 8.11158 231.893 8.86589C231.893 10.6897 230.21 12.1758 228.099 12.1758C227.632 12.1758 227.21 12.097 226.799 11.9844L226.793 11.9901ZM228.651 18.8239C230.818 18.8239 231.921 18.1653 231.921 17.1801C231.921 16.195 230.874 15.9417 229.653 15.9023L227.463 15.8235C226.827 15.801 226.202 15.7278 225.678 15.5702C225.408 15.7841 225.138 16.1894 225.138 16.8086C225.138 18.1258 226.416 18.8239 228.645 18.8239H228.651ZM229.872 8.87152C229.872 7.28409 229.388 6.10197 228.071 6.10197C226.754 6.10197 226.348 7.28409 226.348 8.87152C226.348 10.4589 226.832 11.6017 228.093 11.6017C229.354 11.6017 229.878 10.4364 229.878 8.87152H229.872Z" fill="white"/>
<path d="M242.847 12.7838L243.078 12.9583C242.476 14.4332 241.159 15.6491 239.127 15.6491C236.475 15.6491 234.674 13.6563 234.674 10.7686C234.674 7.53183 236.976 5.4997 239.267 5.4997C241.558 5.4997 243.219 7.65004 243.022 9.62587H236.706V9.91859C236.706 12.5924 238.119 13.9491 240.174 13.9491C241.237 13.9491 242.149 13.5832 242.847 12.7895V12.7838ZM236.768 9.08547L240.99 8.98978V8.75898C240.99 6.94077 240.387 6.10765 239.205 6.10765C237.849 6.10765 236.959 7.34607 236.768 9.0911V9.08547Z" fill="white"/>
<path d="M245.544 15.3226C245.91 14.2193 246.011 13.2511 246.011 11.4667V9.12492C246.011 7.78518 245.583 7.05339 245.082 6.50736V6.46796L247.931 5.40405V7.34048L248.009 7.35736C248.882 6.27094 249.85 5.49974 251.263 5.49974C253.087 5.49974 254.089 6.64246 254.089 8.40439V11.4441C254.089 13.2624 254.128 14.2137 254.556 15.317V15.3564H251.629V15.317C251.995 14.2137 252.074 13.1498 252.074 11.461V8.88287C252.074 7.77955 251.573 6.85074 250.233 6.85074C249.383 6.85074 248.589 7.21664 248.004 7.95406V11.4385C248.004 13.2004 248.043 14.208 248.448 15.3114V15.3508H245.544V15.3114V15.3226Z" fill="white"/>
<path d="M265.184 13.1497C264.604 14.5626 263.287 15.6491 261.288 15.6491C258.654 15.6491 256.892 13.7126 256.892 10.7461C256.892 7.77951 259.335 5.4997 261.97 5.4997C263.366 5.4997 264.159 5.79242 264.621 6.02321L264.914 8.34806L264.683 8.40435C264.142 7.49242 262.881 6.10202 261.66 6.10202C259.994 6.10202 258.907 7.57686 258.907 9.93548C258.907 12.5305 260.281 13.9434 262.352 13.9434C263.321 13.9434 264.289 13.6732 264.97 12.9583L265.184 13.1497Z" fill="white"/>
<path d="M275.255 12.7838L275.485 12.9583C274.883 14.4332 273.566 15.6491 271.534 15.6491C268.882 15.6491 267.081 13.6563 267.081 10.7686C267.081 7.53183 269.383 5.4997 271.674 5.4997C273.966 5.4997 275.626 7.65004 275.429 9.62587H269.113V9.91859C269.113 12.5924 270.526 13.9491 272.581 13.9491C273.645 13.9491 274.557 13.5832 275.255 12.7895V12.7838ZM269.175 9.08547L273.397 8.98978V8.75898C273.397 6.94077 272.795 6.10765 271.613 6.10765C270.256 6.10765 269.366 7.34607 269.175 9.0911V9.08547Z" fill="white"/>
<path d="M0.799311 38.5652C1.1258 38.0417 1.26654 37.3437 1.26654 35.8351V29.6543H0.00561523V29.0519H1.26654V27.9261C1.26654 24.9821 3.16357 23.237 5.3139 23.237C5.91622 23.237 6.59172 23.3721 6.86192 23.5072L7.11524 25.7139L6.90133 25.7927C6.49603 25.1509 5.6798 23.8168 4.7904 23.8168C3.99669 23.8168 3.28179 24.9427 3.28179 27.0536V29.0463H5.66291V29.6486H3.28179V35.8295C3.28179 37.3212 3.43941 38.0361 3.74902 38.5596V38.599H0.804946V38.5596L0.799311 38.5652Z" fill="white"/>
<path d="M7.14918 33.8369C7.17169 31.1462 9.4909 28.7425 12.283 28.7425C15.075 28.7425 17.4562 31.1462 17.4562 33.8369C17.4562 36.5276 15.1313 38.8919 12.283 38.8919C9.43461 38.8919 7.10977 36.5276 7.14918 33.8369ZM15.2439 33.8369C15.2439 31.4952 14.2363 29.3448 12.283 29.3448C10.3296 29.3448 9.33893 31.4952 9.33893 33.8369C9.33893 36.1786 10.324 38.2896 12.283 38.2896C14.2419 38.2896 15.2439 36.1786 15.2439 33.8369Z" fill="white"/>
<path d="M19.933 38.5654C20.2989 37.4621 20.4002 36.4939 20.4002 34.7095V32.3677C20.4002 31.028 19.9724 30.2962 19.4714 29.7502V29.7108L22.3198 28.6469V31.0505H22.3986C23.2148 30.1386 24.2956 28.7257 25.596 28.7482L25.5566 31.2081L25.3651 31.2306C24.9767 30.9998 24.1436 30.7465 23.7214 30.7465C23.4118 30.7465 22.8489 31.073 22.4042 31.6753V34.6982C22.4042 36.4601 22.4436 37.4677 22.8489 38.5711V38.6105H19.9443V38.5711L19.933 38.5654Z" fill="white"/>
<path d="M41.0479 28.0839L40.7777 28.1796C39.5167 25.5452 38.1826 24.7346 36.826 24.7346C35.4694 24.7346 34.732 25.5114 34.732 26.7498C34.732 28.5343 36.3757 29.3055 38.1038 30.1611C40.0009 31.0899 41.9992 32.1144 41.9992 34.7714C41.9992 37.676 39.6744 38.8975 36.9274 38.8975C35.627 38.8975 34.2141 38.6274 32.9363 38.1432L32.5479 34.4449L32.818 34.3492C34.2535 37.1019 35.7452 38.3009 37.5465 38.3009C39.3479 38.3009 40.1247 37.1187 40.1247 35.7846C40.1247 33.9439 38.6499 33.0714 37.0455 32.2777C35.0922 31.2926 33.0376 30.3412 33.0376 27.8419C33.0376 25.168 35.1879 24.1435 37.5128 24.1435C38.6555 24.1435 39.7588 24.3743 40.6707 24.7064L41.0591 28.0952L41.0479 28.0839Z" fill="white"/>
<path d="M47.206 38.8919C46.007 38.8919 44.9375 38.3515 44.9375 36.4714V29.6545H43.8511V29.4011L46.7782 26.8061H46.9696V29.0521H49.5646V29.6545H46.9696V36.4151C46.9696 37.3045 47.4143 37.7717 48.3263 37.7717C49.0243 37.7717 49.4858 37.5184 49.6041 37.4452L49.7617 37.6366C49.1988 38.4134 48.3093 38.8975 47.206 38.8975V38.8919Z" fill="white"/>
<path d="M52.143 38.5654C52.5089 37.4621 52.6102 36.4939 52.6102 34.7095V32.3677C52.6102 31.028 52.1824 30.2962 51.6814 29.7502V29.7108L54.5297 28.6469V31.0505H54.6086C55.4248 30.1386 56.5056 28.7257 57.8059 28.7482L57.7665 31.2081L57.5751 31.2306C57.1867 30.9998 56.3536 30.7465 55.9314 30.7465C55.6218 30.7465 55.0589 31.073 54.6142 31.6753V34.6982C54.6142 36.4601 54.6536 37.4677 55.0589 38.5711V38.6105H52.1543V38.5711L52.143 38.5654Z" fill="white"/>
<path d="M59.6804 37.0341C59.6804 34.8669 62.6639 33.8368 64.8536 33.4709V32.0579C64.8536 30.6844 64.3695 30.0427 62.9735 30.0427C62.1235 30.0427 61.0933 30.2735 60.2433 30.8758L60.0519 30.6844C60.885 29.5586 62.3374 28.748 64.043 28.748C66.2102 28.748 66.8689 30.0427 66.8689 31.5344V36.7076C66.8689 37.248 67.0602 37.6196 67.6457 37.6196C68.0115 37.6196 68.3212 37.4845 68.6702 37.1748L68.8447 37.3325C68.5182 37.9911 67.8596 38.8411 66.6155 38.8411C65.5516 38.8411 65.0056 38.2388 64.893 37.4676C64.2569 38.2219 63.1874 38.903 61.8927 38.903C60.598 38.903 59.6861 38.2219 59.6861 37.0454L59.6804 37.0341ZM63.0466 37.6927C63.801 37.6927 64.499 37.3662 64.848 36.9778V33.9775C63.2043 34.3434 61.5549 35.1033 61.5549 36.4374C61.5549 37.2143 62.1178 37.6984 63.0466 37.6984V37.6927Z" fill="white"/>
<path d="M73.3704 38.8919C72.1714 38.8919 71.1018 38.3515 71.1018 36.4714V29.6545H70.0154V29.4011L72.9425 26.8061H73.1339V29.0521H75.729V29.6545H73.1339V36.4151C73.1339 37.3045 73.5786 37.7717 74.4906 37.7717C75.1886 37.7717 75.6502 37.5184 75.7684 37.4452L75.926 37.6366C75.3631 38.4134 74.4737 38.8975 73.3704 38.8975V38.8919Z" fill="white"/>
<path d="M85.6926 36.0266L85.9234 36.2011C85.321 37.676 84.0038 38.8919 81.9717 38.8919C79.3204 38.8919 77.519 36.8991 77.519 34.0114C77.519 30.7746 79.8214 28.7425 82.1124 28.7425C84.4035 28.7425 86.0641 30.8928 85.8671 32.8687H79.5512V33.1614C79.5512 35.8352 80.9641 37.1919 83.0187 37.1919C84.0826 37.1919 84.9946 36.826 85.6926 36.0323V36.0266ZM79.6074 32.3283L83.8293 32.2326V32.0018C83.8293 30.1836 83.227 29.3505 82.0449 29.3505C80.6882 29.3505 79.7988 30.5889 79.6074 32.3339V32.3283Z" fill="white"/>
<path d="M90.6519 35.2329C89.8976 35.4468 89.6668 35.8521 89.6668 36.218C89.6668 36.8766 90.4211 37.0511 91.6426 37.0905L93.6579 37.1468C95.6731 37.2031 97.1817 37.9968 97.1254 39.6461C97.0691 41.4306 95.2453 42.8829 91.8396 42.8829C89.2446 42.8829 87.387 42.0329 87.387 40.5018C87.387 39.4942 88.1976 38.8749 89.0926 38.6216C88.5128 38.3289 88.1413 37.8673 88.1413 37.1468C88.1413 35.9647 89.0926 35.2892 90.0946 34.9965C88.9519 34.4167 88.1976 33.3527 88.1976 32.1087C88.1976 30.2117 89.8638 28.7368 91.9353 28.7368C92.9598 28.7368 93.8886 29.1252 94.5698 29.6882L97.2042 28.2752L97.2436 28.2921V30.1892H97.1648L95.0145 30.1329C95.4817 30.6733 95.7519 31.3544 95.7519 32.1087C95.7519 33.9325 94.0688 35.4186 91.9578 35.4186C91.4906 35.4186 91.0684 35.3398 90.6575 35.2273L90.6519 35.2329ZM92.5095 42.0667C94.6767 42.0667 95.7801 41.4081 95.7801 40.423C95.7801 39.4379 94.733 39.1845 93.5115 39.1451L91.3218 39.0663C90.6857 39.0438 90.0608 38.9706 89.5373 38.813C89.2671 39.0269 88.9969 39.4322 88.9969 40.0514C88.9969 41.3687 90.2747 42.0667 92.5039 42.0667H92.5095ZM93.731 32.1143C93.731 30.5269 93.2469 29.3448 91.9297 29.3448C90.6125 29.3448 90.2072 30.5269 90.2072 32.1143C90.2072 33.7018 90.6913 34.8445 91.9522 34.8445C93.2132 34.8445 93.7367 33.6792 93.7367 32.1143H93.731Z" fill="white"/>
<path d="M99.3263 38.5654C99.5965 37.4621 99.7936 36.4714 99.7936 34.7095V32.4409C99.7936 31.1631 99.3657 30.3863 98.8647 29.8628V29.7051L101.792 28.6412V34.6869C101.792 36.4095 101.831 37.4565 102.237 38.5598V38.5992H99.332V38.5598L99.3263 38.5654ZM99.484 25.6634C99.484 24.9654 100.007 24.425 100.683 24.425C101.358 24.425 101.905 24.9654 101.905 25.6634C101.905 26.322 101.364 26.8624 100.683 26.8624C100.002 26.8624 99.484 26.322 99.484 25.6634Z" fill="white"/>
<path d="M112.769 36.3925C112.189 37.8054 110.872 38.8919 108.874 38.8919C106.239 38.8919 104.477 36.9554 104.477 33.9889C104.477 31.0223 106.92 28.7425 109.555 28.7425C110.951 28.7425 111.745 29.0352 112.206 29.266L112.499 31.5909L112.268 31.6471C111.728 30.7352 110.467 29.3448 109.245 29.3448C107.579 29.3448 106.493 30.8197 106.493 33.1783C106.493 35.7733 107.866 37.1862 109.938 37.1862C110.906 37.1862 111.874 36.916 112.555 36.2011L112.769 36.3925Z" fill="white"/>
<path d="M123.83 38.5991H120.053V38.5597C120.672 37.3606 120.83 36.6795 120.83 35.0921V27.9262C120.83 26.3162 120.672 25.6576 120.053 24.4586V24.4192H124.99C128.497 24.4192 129.893 25.7927 129.893 27.8643C129.893 29.4742 129.02 30.8252 127.123 31.4669L129.392 35.9027C130.225 37.5295 130.63 37.9573 131.638 38.4583V38.5934H128.227L124.781 31.8553H123.059V35.0921C123.059 36.702 123.194 37.3606 123.836 38.5597V38.5991H123.83ZM123.053 25.0441V31.2586H124.562C126.982 31.2586 127.585 29.6318 127.585 27.8868C127.585 26.1417 126.909 25.0215 124.562 25.0215C124.309 25.0215 123.808 25.0215 123.053 25.0384V25.0441Z" fill="white"/>
<path d="M140.757 36.0266L140.988 36.2011C140.386 37.676 139.068 38.8919 137.036 38.8919C134.385 38.8919 132.583 36.8991 132.583 34.0114C132.583 30.7746 134.886 28.7425 137.177 28.7425C139.468 28.7425 141.129 30.8928 140.932 32.8687H134.616V33.1614C134.616 35.8352 136.029 37.1919 138.083 37.1919C139.147 37.1919 140.059 36.826 140.757 36.0323V36.0266ZM134.678 32.3283L138.899 32.2326V32.0018C138.899 30.1836 138.297 29.3505 137.115 29.3505C135.758 29.3505 134.869 30.5889 134.678 32.3339V32.3283Z" fill="white"/>
<path d="M149.454 31.4331L149.223 31.5119C148.272 29.8288 147.152 29.3447 146.201 29.3447C145.176 29.3447 144.63 29.9076 144.63 30.6619C144.63 31.8046 145.908 32.2099 147.225 32.756C148.621 33.3358 150.034 34.0732 150.034 35.9702C150.034 37.9854 148.351 38.8974 146.257 38.8974C145.21 38.8974 144.146 38.6666 143.296 38.3739L143.082 35.7L143.313 35.6212C144.281 37.5013 145.289 38.3119 146.55 38.3119C147.811 38.3119 148.312 37.5182 148.312 36.7245C148.312 35.7 147.478 35.2328 146.319 34.7318C144.923 34.1295 143.257 33.5103 143.257 31.4781C143.257 29.446 145.002 28.748 146.764 28.748C147.732 28.748 148.722 28.9394 149.24 29.1533L149.454 31.4387V31.4331Z" fill="white"/>
<path d="M160.206 36.0266L160.437 36.2011C159.834 37.676 158.517 38.8919 156.485 38.8919C153.834 38.8919 152.032 36.8991 152.032 34.0114C152.032 30.7746 154.335 28.7425 156.626 28.7425C158.917 28.7425 160.577 30.8928 160.38 32.8687H154.064V33.1614C154.064 35.8352 155.477 37.1919 157.532 37.1919C158.596 37.1919 159.508 36.826 160.206 36.0323V36.0266ZM154.121 32.3283L158.343 32.2326V32.0018C158.343 30.1836 157.74 29.3505 156.558 29.3505C155.201 29.3505 154.312 30.5889 154.121 32.3339V32.3283Z" fill="white"/>
<path d="M162.469 37.0341C162.469 34.8669 165.452 33.8368 167.642 33.4709V32.0579C167.642 30.6844 167.158 30.0427 165.762 30.0427C164.912 30.0427 163.881 30.2735 163.031 30.8758L162.84 30.6844C163.673 29.5586 165.125 28.748 166.831 28.748C168.998 28.748 169.657 30.0427 169.657 31.5344V36.7076C169.657 37.248 169.848 37.6196 170.434 37.6196C170.8 37.6196 171.109 37.4845 171.458 37.1748L171.633 37.3325C171.306 37.9911 170.648 38.8411 169.404 38.8411C168.34 38.8411 167.794 38.2388 167.681 37.4676C167.045 38.2219 165.975 38.903 164.681 38.903C163.386 38.903 162.474 38.2219 162.474 37.0454L162.469 37.0341ZM165.84 37.6927C166.595 37.6927 167.293 37.3662 167.642 36.9778V33.9775C165.998 34.3434 164.349 35.1033 164.349 36.4374C164.349 37.2143 164.912 37.6984 165.84 37.6984V37.6927Z" fill="white"/>
<path d="M173.434 38.5654C173.8 37.4621 173.901 36.4939 173.901 34.7095V32.3677C173.901 31.028 173.474 30.2962 172.973 29.7502V29.7108L175.821 28.6469V31.0505H175.9C176.716 30.1386 177.797 28.7257 179.097 28.7482L179.058 31.2081L178.866 31.2306C178.478 30.9998 177.645 30.7465 177.223 30.7465C176.913 30.7465 176.35 31.073 175.905 31.6753V34.6982C175.905 36.4601 175.945 37.4677 176.35 38.5711V38.6105H173.445V38.5711L173.434 38.5654Z" fill="white"/>
<path d="M189.083 36.3925C188.503 37.8054 187.186 38.8919 185.188 38.8919C182.553 38.8919 180.792 36.9554 180.792 33.9889C180.792 31.0223 183.235 28.7425 185.869 28.7425C187.265 28.7425 188.059 29.0352 188.52 29.266L188.813 31.5909L188.582 31.6471C188.042 30.7352 186.781 29.3448 185.559 29.3448C183.893 29.3448 182.807 30.8197 182.807 33.1783C182.807 35.7733 184.18 37.1862 186.252 37.1862C187.22 37.1862 188.188 36.916 188.869 36.2011L189.083 36.3925Z" fill="white"/>
<path d="M191.234 38.5652C191.6 37.4619 191.678 36.4937 191.678 34.7093V26.9241C191.678 25.6069 191.25 24.8526 190.766 24.3291V24.2728L193.671 23.2483V30.6112H193.688C194.56 29.5248 195.529 28.7536 196.942 28.7536C198.76 28.7536 199.79 29.8963 199.79 31.6583V34.7205C199.79 36.5219 199.829 37.4732 200.235 38.5765V38.6159H197.308V38.5765C197.673 37.4732 197.775 36.4093 197.775 34.7205V32.1424C197.775 31.0391 197.251 30.1102 195.917 30.1102C195.045 30.1102 194.273 30.4987 193.671 31.2361V34.7205C193.671 36.4656 193.75 37.4732 194.155 38.5765V38.6159H191.228V38.5765L191.234 38.5652Z" fill="white"/>
<path d="M207.406 31.529C207.406 27.4253 211.048 24.1323 214.69 24.1323C218.332 24.1323 222.014 27.4253 222.014 31.529C222.014 35.6326 218.332 38.8919 214.69 38.8919C211.048 38.8919 207.406 35.6383 207.406 31.529ZM219.509 31.529C219.509 27.6955 217.843 24.729 214.685 24.729C211.527 24.729 209.9 27.6899 209.9 31.529C209.9 35.3681 211.544 38.2896 214.685 38.2896C217.826 38.2896 219.509 35.3849 219.509 31.529Z" fill="white"/>
<path d="M224.564 42.8436C224.93 41.7572 225.031 40.7721 225.031 39.0101V32.3677C225.031 31.028 224.603 30.2962 224.102 29.7502V29.7108L226.951 28.6469V30.4088L227.069 30.4257C227.767 29.5757 228.853 28.7426 230.418 28.7426C232.799 28.7426 234.314 30.8366 234.314 33.7187C234.314 36.6009 232.726 38.8919 229.354 38.8919C228.425 38.8919 227.649 38.7005 227.029 38.4247V38.9876C227.029 40.7327 227.069 41.7572 227.474 42.8436V42.883H224.569V42.8436H224.564ZM232.197 34.0903C232.197 31.2813 231.015 30.0992 229.309 30.0992C228.183 30.0992 227.452 30.5833 227.024 31.0843V34.8783C227.024 37.5128 228.397 38.3065 229.501 38.3065C231.088 38.3065 232.191 36.6966 232.191 34.0846L232.197 34.0903Z" fill="white"/>
<path d="M244.536 36.0266L244.767 36.2011C244.165 37.676 242.847 38.8919 240.815 38.8919C238.164 38.8919 236.363 36.8991 236.363 34.0114C236.363 30.7746 238.665 28.7425 240.956 28.7425C243.247 28.7425 244.908 30.8928 244.711 32.8687H238.395V33.1614C238.395 35.8352 239.808 37.1919 241.862 37.1919C242.926 37.1919 243.838 36.826 244.536 36.0323V36.0266ZM238.457 32.3283L242.679 32.2326V32.0018C242.679 30.1836 242.076 29.3505 240.894 29.3505C239.537 29.3505 238.648 30.5889 238.457 32.3339V32.3283Z" fill="white"/>
<path d="M247.227 38.5654C247.593 37.4621 247.694 36.4939 247.694 34.7095V32.3677C247.694 31.028 247.266 30.2962 246.765 29.7502V29.7108L249.614 28.6469V31.0505H249.693C250.509 30.1386 251.59 28.7257 252.89 28.7482L252.85 31.2081L252.659 31.2306C252.271 30.9998 251.438 30.7465 251.015 30.7465C250.706 30.7465 250.143 31.073 249.698 31.6753V34.6982C249.698 36.4601 249.738 37.4677 250.143 38.5711V38.6105H247.238V38.5711L247.227 38.5654Z" fill="white"/>
<path d="M254.764 37.0341C254.764 34.8669 257.748 33.8368 259.938 33.4709V32.0579C259.938 30.6844 259.453 30.0427 258.057 30.0427C257.207 30.0427 256.177 30.2735 255.327 30.8758L255.136 30.6844C255.969 29.5586 257.421 28.748 259.127 28.748C261.294 28.748 261.953 30.0427 261.953 31.5344V36.7076C261.953 37.248 262.144 37.6196 262.73 37.6196C263.096 37.6196 263.405 37.4845 263.754 37.1748L263.929 37.3325C263.602 37.9911 262.944 38.8411 261.699 38.8411C260.636 38.8411 260.09 38.2388 259.977 37.4676C259.341 38.2219 258.271 38.903 256.977 38.903C255.682 38.903 254.77 38.2219 254.77 37.0454L254.764 37.0341ZM258.131 37.6927C258.885 37.6927 259.583 37.3662 259.932 36.9778V33.9775C258.288 34.3434 256.639 35.1033 256.639 36.4374C256.639 37.2143 257.202 37.6984 258.131 37.6984V37.6927Z" fill="white"/>
<path d="M268.454 38.8919C267.255 38.8919 266.186 38.3515 266.186 36.4714V29.6545H265.099V29.4011L268.026 26.8061H268.218V29.0521H270.813V29.6545H268.218V36.4151C268.218 37.3045 268.663 37.7717 269.575 37.7717C270.273 37.7717 270.734 37.5184 270.852 37.4452L271.01 37.6366C270.447 38.4134 269.558 38.8975 268.454 38.8975V38.8919Z" fill="white"/>
<path d="M273.397 38.5654C273.667 37.4621 273.864 36.4714 273.864 34.7095V32.4409C273.864 31.1631 273.437 30.3863 272.936 29.8628V29.7051L275.863 28.6412V34.6869C275.863 36.4095 275.902 37.4565 276.307 38.5598V38.5992H273.403V38.5598L273.397 38.5654ZM273.549 25.6634C273.549 24.9654 274.073 24.425 274.748 24.425C275.424 24.425 275.97 24.9654 275.97 25.6634C275.97 26.322 275.429 26.8624 274.748 26.8624C274.067 26.8624 273.549 26.322 273.549 25.6634Z" fill="white"/>
<path d="M278.548 33.8369C278.57 31.1462 280.889 28.7425 283.681 28.7425C286.473 28.7425 288.855 31.1462 288.855 33.8369C288.855 36.5276 286.53 38.8919 283.681 38.8919C280.833 38.8919 278.508 36.5276 278.548 33.8369ZM286.642 33.8369C286.642 31.4952 285.635 29.3448 283.681 29.3448C281.728 29.3448 280.737 31.4952 280.737 33.8369C280.737 36.1786 281.722 38.2896 283.681 38.2896C285.64 38.2896 286.642 36.1786 286.642 33.8369Z" fill="white"/>
<path d="M291.331 38.5654C291.697 37.4621 291.798 36.4939 291.798 34.7095V32.3677C291.798 31.028 291.371 30.2962 290.87 29.7502V29.7108L293.718 28.6469V30.5833L293.797 30.6002C294.669 29.5137 295.638 28.7426 297.05 28.7426C298.869 28.7426 299.876 29.8853 299.876 31.6472V34.6869C299.876 36.5052 299.916 37.4565 300.343 38.5598V38.5992H297.416V38.5598C297.782 37.4565 297.861 36.3926 297.861 34.7038V32.1257C297.861 31.0224 297.36 30.0936 296.02 30.0936C295.17 30.0936 294.377 30.4594 293.791 31.1969V34.6813C293.791 36.4432 293.831 37.4509 294.236 38.5542V38.5936H291.331V38.5542V38.5654Z" fill="white"/>
<path d="M309.091 31.4331L308.86 31.5119C307.909 29.8288 306.789 29.3447 305.838 29.3447C304.813 29.3447 304.267 29.9076 304.267 30.6619C304.267 31.8046 305.545 32.2099 306.862 32.756C308.258 33.3358 309.671 34.0732 309.671 35.9702C309.671 37.9854 307.988 38.8974 305.894 38.8974C304.847 38.8974 303.783 38.6666 302.933 38.3739L302.719 35.7L302.95 35.6212C303.918 37.5013 304.926 38.3119 306.187 38.3119C307.448 38.3119 307.949 37.5182 307.949 36.7245C307.949 35.7 307.115 35.2328 305.956 34.7318C304.56 34.1295 302.894 33.5103 302.894 31.4781C302.894 29.446 304.639 28.748 306.4 28.748C307.369 28.748 308.359 28.9394 308.877 29.1533L309.091 31.4387V31.4331Z" fill="white"/>
</svg>
