<svg width="24" height="22" viewBox="0 0 24 22" fill="none" xmlns="http://www.w3.org/2000/svg">
<path d="M20.75 5.19434H2.97222C1.74492 5.19434 0.75 6.18926 0.75 7.41656V18.5277C0.75 19.755 1.74492 20.7499 2.97222 20.7499H20.75C21.9773 20.7499 22.9722 19.755 22.9722 18.5277V7.41656C22.9722 6.18926 21.9773 5.19434 20.75 5.19434Z" stroke="#60A5FA" stroke-width="1.5" stroke-linecap="round" stroke-linejoin="round"/>
<path d="M16.3056 20.75V2.97222C16.3056 2.38285 16.0715 1.81762 15.6548 1.40087C15.238 0.984126 14.6728 0.75 14.0834 0.75H9.63897C9.0496 0.75 8.48437 0.984126 8.06762 1.40087C7.65087 1.81762 7.41675 2.38285 7.41675 2.97222V20.75" stroke="#60A5FA" stroke-width="1.5" stroke-linecap="round" stroke-linejoin="round"/>
</svg>
