<svg width="22" height="22" viewBox="0 0 22 22" fill="none" xmlns="http://www.w3.org/2000/svg">
<path d="M6.55556 1V4.33333C6.55556 4.9227 6.32143 5.48793 5.90468 5.90468C5.48793 6.32143 4.9227 6.55556 4.33333 6.55556H1M21 6.55556H17.6667C17.0773 6.55556 16.5121 6.32143 16.0953 5.90468C15.6786 5.48793 15.4444 4.9227 15.4444 4.33333V1M15.4444 21V17.6667C15.4444 17.0773 15.6786 16.5121 16.0953 16.0953C16.5121 15.6786 17.0773 15.4444 17.6667 15.4444H21M1 15.4444H4.33333C4.9227 15.4444 5.48793 15.6786 5.90468 16.0953C6.32143 16.5121 6.55556 17.0773 6.55556 17.6667V21" stroke="white" stroke-width="2" stroke-linecap="round" stroke-linejoin="round"/>
</svg>
