<svg width="22" height="22" viewBox="0 0 22 22" fill="none" xmlns="http://www.w3.org/2000/svg">
<path d="M10.75 20.75C16.2728 20.75 20.75 16.2728 20.75 10.75C20.75 5.22715 16.2728 0.75 10.75 0.75C5.22715 0.75 0.75 5.22715 0.75 10.75C0.75 16.2728 5.22715 20.75 10.75 20.75Z" stroke="white" stroke-width="1.5" stroke-linecap="round" stroke-linejoin="round"/>
<path d="M10.75 14.75C12.9591 14.75 14.75 12.9591 14.75 10.75C14.75 8.54086 12.9591 6.75 10.75 6.75C8.54086 6.75 6.75 8.54086 6.75 10.75C6.75 12.9591 8.54086 14.75 10.75 14.75Z" stroke="white" stroke-width="1.5" stroke-linecap="round" stroke-linejoin="round"/>
<path d="M3.68018 3.68018L7.92018 7.92018" stroke="white" stroke-width="1.5" stroke-linecap="round" stroke-linejoin="round"/>
<path d="M13.5801 13.5801L17.8201 17.8201" stroke="white" stroke-width="1.5" stroke-linecap="round" stroke-linejoin="round"/>
<path d="M13.5801 7.92018L17.8201 3.68018" stroke="white" stroke-width="1.5" stroke-linecap="round" stroke-linejoin="round"/>
<path d="M13.5801 7.92014L17.1101 4.39014" stroke="white" stroke-width="1.5" stroke-linecap="round" stroke-linejoin="round"/>
<path d="M3.68018 17.8201L7.92018 13.5801" stroke="white" stroke-width="1.5" stroke-linecap="round" stroke-linejoin="round"/>
</svg>
