<svg width="22" height="22" viewBox="0 0 22 22" fill="none" xmlns="http://www.w3.org/2000/svg">
<path d="M10.7498 3.75V20.75M10.7498 20.75H7.74976M10.7498 20.75H13.7498M19.7498 11.75L17.2498 6.75L14.7498 11.75M6.74976 11.75L4.24976 6.75L1.74976 11.75" stroke="#2563EB" stroke-width="1.5" stroke-linecap="round" stroke-linejoin="round"/>
<path d="M2.74976 6.75H3.79776C5.06176 6.75 6.28776 6.221 7.27376 5.25C9.30576 3.25 12.1938 3.25 14.2258 5.25C15.2118 6.221 16.4378 6.75 17.7018 6.75H18.7498" stroke="#2563EB" stroke-width="1.5" stroke-linecap="round" stroke-linejoin="round"/>
<path d="M17.2497 15.75C18.6047 15.75 19.7837 14.916 20.3967 13.685C20.7277 13.02 20.8927 12.688 20.5917 12.219C20.2897 11.75 19.7897 11.75 18.7897 11.75H15.7077C14.7087 11.75 14.2087 11.75 13.9077 12.219C13.6057 12.688 13.7707 13.02 14.1017 13.685C14.7157 14.916 15.8947 15.75 17.2497 15.75ZM4.24968 15.75C5.60468 15.75 6.78368 14.916 7.39668 13.685C7.72768 13.02 7.89268 12.688 7.59168 12.219C7.28968 11.75 6.78968 11.75 5.78968 11.75H2.70868C1.70968 11.75 1.20968 11.75 0.908682 12.219C0.606682 12.688 0.771682 13.02 1.10268 13.685C1.71568 14.916 2.89468 15.75 4.24968 15.75ZM12.2497 2.25C12.2497 2.64782 12.0916 3.02936 11.8103 3.31066C11.529 3.59196 11.1475 3.75 10.7497 3.75C10.3519 3.75 9.97033 3.59196 9.68902 3.31066C9.40772 3.02936 9.24968 2.64782 9.24968 2.25C9.24968 1.85218 9.40772 1.47064 9.68902 1.18934C9.97033 0.908035 10.3519 0.75 10.7497 0.75C11.1475 0.75 11.529 0.908035 11.8103 1.18934C12.0916 1.47064 12.2497 1.85218 12.2497 2.25Z" stroke="#2563EB" stroke-width="1.5"/>
</svg>
