<svg width="270" height="57" viewBox="0 0 270 57" fill="none" xmlns="http://www.w3.org/2000/svg">
<path d="M48.3167 50.9081C47.0618 51.8675 38.136 56.219 28.0324 56.219C10.9902 56.219 0 43.8968 0 28.1139C0 12.3309 12.2451 0.0086937 29.4329 0.0086937C37.2537 0.0086937 44.1108 2.0003 48.0212 3.55075L49.6445 16.4598L48.6123 16.8281C41.5281 6.50175 36.8083 2.29583 28.4735 2.29583C14.9006 2.29583 9.51687 13.2861 9.51687 28.1139C9.51687 42.9417 15.1233 53.9319 28.0324 53.9319C38.3587 53.9319 43.8196 46.6294 48.9078 36.303L49.8672 36.5985L48.3167 50.9081Z" fill="white"/>
<path d="M53.2594 55.1096V54.964C56.8015 51.2763 58.1292 47.957 60.2664 42.2777L75.9765 0.526802H78.3365L94.2693 43.0872C96.6293 49.5031 98.3981 52.3085 100.981 54.964V55.1096H86.2258V54.964C87.4807 52.8267 87.4079 48.1797 85.4163 42.7188L82.5381 35.1207H65.2776L63.877 38.8812C60.6305 47.5843 62.4765 52.5269 64.0226 54.9597V55.1053H53.2551L53.2594 55.1096ZM81.7329 32.8336L73.9892 12.1081L66.1684 32.8336H81.7329Z" fill="white"/>
<path d="M105.559 54.9639C107.992 50.3896 108.51 47.8841 108.51 41.7594V14.468C108.51 8.34754 107.992 5.8377 105.559 1.26343V1.11781H119.942V1.26343C117.509 5.8377 116.991 8.34326 116.991 14.468V41.7594C116.991 47.8798 117.509 50.3896 119.942 54.9639V55.1095H105.559V54.9639Z" fill="white"/>
<path d="M159.555 15.0548L158.523 15.4232C153.73 5.39232 148.638 2.29141 143.477 2.29141C138.316 2.29141 135.51 5.24241 135.51 9.9623C135.51 16.7466 141.781 19.6976 148.347 22.9441C155.576 26.4862 163.174 30.3923 163.174 40.5002C163.174 51.5633 154.321 56.2103 143.849 56.2103C138.907 56.2103 133.523 55.1781 128.653 53.3321L127.18 39.2453L128.212 38.877C133.673 49.3532 139.352 53.9232 146.209 53.9232C153.066 53.9232 156.022 49.4217 156.022 44.3335C156.022 37.3265 150.415 34.0072 144.295 30.9834C136.842 27.2229 129.026 23.608 129.026 14.0911C129.026 3.9104 137.215 0 146.064 0C150.415 0 154.621 0.886585 158.086 2.14151L159.564 15.0505L159.555 15.0548Z" fill="white"/>
<path d="M184.264 55.1095H169.882V54.9639C172.242 50.3897 172.833 47.807 172.833 41.7594V14.468C172.833 8.34754 172.242 5.8377 169.882 1.26343V1.11781H188.693C202.043 1.11781 207.354 6.35594 207.354 14.2495C207.354 20.37 204.034 25.5353 196.805 27.9681L205.435 44.8603C208.609 51.0578 210.155 52.6811 213.992 54.5956V55.1138H201.011L187.879 29.4457H181.313V41.7637C181.313 47.8841 181.831 50.3939 184.264 54.9682V55.1138V55.1095ZM181.313 3.47775V27.1543H187.065C196.286 27.1543 198.574 20.9568 198.574 14.3181C198.574 7.67939 195.991 3.40066 187.065 3.40066C186.106 3.40066 184.187 3.40066 181.313 3.47347V3.47775Z" fill="white"/>
<path d="M214.215 28.1866C214.215 12.5493 228.083 0.00857162 241.952 0.00857162C255.82 0.00857162 269.834 12.5493 269.834 28.1866C269.834 43.8239 255.82 56.2189 241.952 56.2189C228.083 56.2189 214.215 43.8281 214.215 28.1866ZM260.317 28.1866C260.317 13.5815 253.974 2.2957 241.952 2.2957C229.929 2.2957 223.732 13.5815 223.732 28.1866C223.732 42.7916 230.002 53.9318 241.952 53.9318C253.902 53.9318 260.317 42.8687 260.317 28.1866Z" fill="white"/>
</svg>
